<svg width="117" height="17" viewBox="0 0 117 17" fill="none" xmlns="http://www.w3.org/2000/svg">
<path d="M33.5 0.415771L36.0982 5.77644L42 6.59173L37.7047 10.7199L38.753 16.5842L33.5 13.7742L28.2463 16.5842L29.2953 10.7199L25 6.59173L30.9018 5.77644L33.5 0.415771Z" fill="#F3CC00"/>
<path d="M58.5 0.415771L61.0982 5.77644L67 6.59173L62.7047 10.7199L63.753 16.5842L58.5 13.7742L53.2463 16.5842L54.2953 10.7199L50 6.59173L55.9018 5.77644L58.5 0.415771Z" fill="#F3CC00"/>
<path d="M83.5 0.415771L86.0982 5.77644L92 6.59173L87.7047 10.7199L88.753 16.5842L83.5 13.7742L78.2463 16.5842L79.2953 10.7199L75 6.59173L80.9018 5.77644L83.5 0.415771Z" fill="#F3CC00"/>
<path d="M108.5 0.415771L111.098 5.77644L117 6.59173L112.705 10.7199L113.753 16.5842L108.5 13.7742L103.246 16.5842L104.295 10.7199L100 6.59173L105.902 5.77644L108.5 0.415771Z" fill="#F3CC00"/>
<path d="M8.5 0.415771L11.0982 5.77644L17 6.59173L12.7047 10.7199L13.753 16.5842L8.5 13.7742L3.24629 16.5842L4.29533 10.7199L0 6.59173L5.90183 5.77644L8.5 0.415771Z" fill="#F3CC00"/>
</svg>
