<svg width="137" height="17" viewBox="0 0 137 17" fill="none" xmlns="http://www.w3.org/2000/svg">
<path d="M8.5 0.415771L11.0982 5.77644L17 6.59173L12.7047 10.7199L13.753 16.5842L8.5 13.7742L3.24629 16.5842L4.29533 10.7199L0 6.59173L5.90183 5.77644L8.5 0.415771Z" fill="#F3CC00"/>
<path d="M38.5 0.415771L41.0982 5.77644L47 6.59173L42.7047 10.7199L43.753 16.5842L38.5 13.7742L33.2463 16.5842L34.2953 10.7199L30 6.59173L35.9018 5.77644L38.5 0.415771Z" fill="#F3CC00"/>
<path d="M68.5 0.415771L71.0982 5.77644L77 6.59173L72.7047 10.7199L73.753 16.5842L68.5 13.7742L63.2463 16.5842L64.2953 10.7199L60 6.59173L65.9018 5.77644L68.5 0.415771Z" fill="#F3CC00"/>
<path d="M98.5 0.415771L101.098 5.77644L107 6.59173L102.705 10.7199L103.753 16.5842L98.5 13.7742L93.2463 16.5842L94.2953 10.7199L90 6.59173L95.9018 5.77644L98.5 0.415771Z" fill="#F3CC00"/>
<path d="M128.5 0.415771L131.098 5.77644L137 6.59173L132.705 10.7199L133.753 16.5842L128.5 13.7742L123.246 16.5842L124.295 10.7199L120 6.59173L125.902 5.77644L128.5 0.415771Z" fill="#F3CC00"/>
</svg>
