<svg width="28" height="28" viewBox="0 0 28 28" fill="none" xmlns="http://www.w3.org/2000/svg">
<path d="M26.3412 6.93274C26.2785 6.82532 26.1739 6.74889 26.0525 6.72172C25.5922 6.6189 25.0948 6.60305 24.5758 6.65381C22.7303 6.83432 20.6098 7.86573 18.8923 8.89887C20.526 7.32307 22.4693 5.81732 23.848 5.81732C23.9446 5.81732 24.0338 5.78634 24.1069 5.73422C24.2205 5.6532 24.2948 5.52064 24.2948 5.37051C24.2948 5.12376 24.0948 4.92371 23.848 4.92371C22.4586 4.92371 20.6281 6.0001 18.4076 8.12291C17.0858 9.38655 16.0333 10.6323 15.6692 11.0751H12.3301C11.9655 10.6317 10.9134 9.38655 9.59226 8.12351C7.37175 6.00075 5.54138 4.92436 4.15186 4.92436C3.90505 4.92436 3.70506 5.12441 3.70506 5.37117C3.70506 5.52124 3.77929 5.65373 3.89283 5.73475C3.96593 5.78694 4.05517 5.81798 4.15186 5.81798C5.53071 5.81798 7.47427 7.32402 9.1081 8.9C7.39045 7.86668 5.26954 6.83509 3.42386 6.65452C2.90497 6.60377 2.40764 6.61961 1.94743 6.72232C1.82602 6.74942 1.72146 6.82586 1.65879 6.93333C1.59111 7.0495 0 9.82573 0 14.0002C0 18.1747 1.59111 20.951 1.65885 21.0671C1.72152 21.1745 1.82608 21.251 1.94749 21.2781C2.24268 21.344 2.55241 21.3745 2.87399 21.3745C3.05414 21.3745 3.23781 21.3649 3.42428 21.3467C5.2699 21.1659 7.39069 20.1338 9.1081 19.1006C7.47427 20.6766 5.53071 22.1825 4.15192 22.1825C4.05523 22.1825 3.96599 22.2135 3.89289 22.2657C3.77934 22.3467 3.70512 22.4792 3.70512 22.6294C3.70512 22.8761 3.90511 23.0762 4.15192 23.0762C5.54138 23.0762 7.3718 21.9998 9.59238 19.877C10.9135 18.6139 11.9656 17.3687 12.3302 16.9254H15.6703C16.0354 17.3693 17.0871 18.6139 18.4076 19.8764C20.6282 21.9992 22.4586 23.0756 23.8481 23.0756C24.0949 23.0756 24.2949 22.8756 24.2949 22.6288C24.2949 22.4786 24.2205 22.3461 24.1069 22.2651C24.0338 22.213 23.9446 22.182 23.8481 22.182C22.4693 22.182 20.5258 20.6761 18.892 19.1001C20.6093 20.1332 22.7299 21.1653 24.5755 21.3461C24.7621 21.3644 24.9458 21.374 25.126 21.374C25.4474 21.374 25.7576 21.3436 26.0525 21.2777C26.1739 21.2506 26.2785 21.1741 26.3412 21.0667C26.4089 20.9505 28 18.1743 28 13.9998C28 9.82513 26.4089 7.04891 26.3412 6.93274ZM19.782 18.5845C18.1474 17.6396 16.7882 16.6166 16.3292 16.2607V11.7385C16.7882 11.3826 18.1474 10.3597 19.782 9.41467C22.2564 7.98422 24.2826 7.34529 25.6623 7.55719C25.9953 8.20894 27.1064 10.6368 27.1064 13.9996C27.1064 17.3508 25.9941 19.7887 25.6618 20.4421C24.2815 20.6538 22.256 20.0148 19.782 18.5845ZM2.3377 20.4426C2.00474 19.7908 0.893617 17.363 0.893617 14.0002C0.893617 10.649 2.00587 8.21108 2.33818 7.55773C3.7184 7.34618 5.74399 7.98506 8.218 9.41532C9.8526 10.3603 11.2118 11.3833 11.6708 11.7391V16.2614C11.2118 16.6172 9.8526 17.6402 8.218 18.5852C5.74363 20.0156 3.71751 20.6545 2.3377 20.4426ZM15.4356 11.9688V16.0317H12.5644V11.9688H15.4356Z" fill="black"/>
<path d="M21.189 15.4862L18.4187 14.4735C18.1869 14.3886 17.9304 14.508 17.8456 14.7398C17.7609 14.9716 17.8801 15.2281 18.1119 15.3128L20.8822 16.3255C20.9328 16.344 20.9846 16.3528 21.0355 16.3528C21.2178 16.3528 21.389 16.2404 21.4552 16.0593C21.5399 15.8275 21.4207 15.5709 21.189 15.4862Z" fill="black"/>
<path d="M20.8821 11.6738L18.1119 12.6865C17.8801 12.7712 17.7609 13.0278 17.8456 13.2595C17.9118 13.4407 18.083 13.553 18.2653 13.553C18.3162 13.553 18.3681 13.5443 18.4187 13.5257L21.189 12.513C21.4208 12.4283 21.5399 12.1717 21.4552 11.94C21.3705 11.7083 21.1141 11.589 20.8821 11.6738Z" fill="black"/>
<path d="M6.83551 12.5219L10.2015 13.5346C10.2445 13.5475 10.2878 13.5537 10.3304 13.5537C10.5225 13.5537 10.6999 13.4288 10.7581 13.2355C10.8292 12.9992 10.6953 12.75 10.459 12.6789L7.09299 11.6662C6.85666 11.5951 6.60752 11.7289 6.53639 11.9653C6.46532 12.2016 6.59924 12.4508 6.83551 12.5219Z" fill="black"/>
<path d="M10.7581 14.7651C10.687 14.5288 10.4377 14.3948 10.2015 14.466L6.83551 15.4786C6.59924 15.5497 6.46532 15.7989 6.53639 16.0353C6.59459 16.2286 6.772 16.3534 6.96407 16.3534C7.00673 16.3534 7.05004 16.3473 7.09299 16.3344L10.459 15.3217C10.6953 15.2506 10.8292 15.0014 10.7581 14.7651Z" fill="black"/>
</svg>
