<?xml version="1.0" encoding="iso-8859-1"?>
<!-- Generator: Adobe Illustrator 19.0.0, SVG Export Plug-In . SVG Version: 6.00 Build 0)  -->
<svg version="1.1" id="Capa_1" xmlns="http://www.w3.org/2000/svg" xmlns:xlink="http://www.w3.org/1999/xlink" x="0px" y="0px"
	 viewBox="0 0 512 512" style="enable-background:new 0 0 512 512;" xml:space="preserve">
<path style="fill:#E51D13;" d="M304.133,2.871c-3.786-2.784-8.67-3.601-13.152-2.198L226.028,20.97
	c-14.463,4.52-24.182,17.739-24.182,32.893v123.368c0,8.157,6.613,14.769,14.769,14.769h78.769c8.157,0,14.769-6.613,14.769-14.769
	V14.77C310.154,10.071,307.919,5.653,304.133,2.871z"/>
<path style="fill:#B50400;" d="M304.133,2.871c-3.786-2.784-8.67-3.601-13.152-2.198L256,11.603V192h39.385
	c8.157,0,14.769-6.613,14.769-14.769V14.77C310.154,10.071,307.919,5.653,304.133,2.871z"/>
<path style="fill:#93480E;" d="M315.077,162.462H196.923c-8.157,0-14.769,6.613-14.769,14.769v59.077
	c0,8.157,6.613,14.769,14.769,14.769h118.154c8.157,0,14.769-6.613,14.769-14.769v-59.077
	C329.846,169.075,323.234,162.462,315.077,162.462z"/>
<path style="fill:#7C3200;" d="M315.077,162.462H256v88.615h59.077c8.157,0,14.769-6.613,14.769-14.769v-59.077
	C329.846,169.075,323.234,162.462,315.077,162.462z"/>
<path style="fill:#FFCA2B;" d="M334.769,221.539H177.231c-8.157,0-14.769,6.613-14.769,14.769v260.923
	c0,8.157,6.613,14.769,14.769,14.769h157.538c8.157,0,14.769-6.613,14.769-14.769V236.308
	C349.538,228.151,342.926,221.539,334.769,221.539z"/>
<path style="fill:#F4AF03;" d="M334.769,221.539H256V512h78.769c8.157,0,14.769-6.613,14.769-14.769V236.308
	C349.538,228.151,342.926,221.539,334.769,221.539z"/>
<path style="fill:#FD9822;" d="M349.538,428.308H162.462v68.923c0,8.157,6.613,14.769,14.769,14.769h157.538
	c8.157,0,14.769-6.613,14.769-14.769V428.308z"/>
<path style="fill:#E2780E;" d="M256,512h78.769c8.157,0,14.769-6.613,14.769-14.769v-68.923H256V512z"/>
<g>
</g>
<g>
</g>
<g>
</g>
<g>
</g>
<g>
</g>
<g>
</g>
<g>
</g>
<g>
</g>
<g>
</g>
<g>
</g>
<g>
</g>
<g>
</g>
<g>
</g>
<g>
</g>
<g>
</g>
</svg>
