<svg width="82" height="24" viewBox="0 0 82 24" fill="none" xmlns="http://www.w3.org/2000/svg">
<path d="M20.1789 20.78C19.9189 21.06 19.5089 21.35 18.9489 21.65C18.3889 21.93 17.7389 22.19 16.9989 22.43C16.2789 22.67 15.5389 22.86 14.7789 23C14.0189 23.16 13.2989 23.24 12.6189 23.24C10.8189 23.24 9.19895 22.98 7.75895 22.46C6.31895 21.92 5.08895 21.18 4.06895 20.24C3.04895 19.28 2.26895 18.15 1.72895 16.85C1.18895 15.55 0.918945 14.13 0.918945 12.59C0.918945 10.57 1.21895 8.82 1.81895 7.34C2.43895 5.84 3.26895 4.6 4.30895 3.62C5.36895 2.62 6.57895 1.88 7.93895 1.4C9.31895 0.919999 10.7589 0.679999 12.2589 0.679999C13.6789 0.679999 14.9789 0.839999 16.1589 1.16C17.3389 1.46 18.3389 1.84 19.1589 2.3L17.7489 6.35C17.3889 6.15 16.9089 5.95 16.3089 5.75C15.7089 5.55 15.0989 5.39 14.4789 5.27C13.8589 5.13 13.3089 5.06 12.8289 5.06C11.6289 5.06 10.5689 5.21 9.64895 5.51C8.72895 5.81 7.94895 6.26 7.30895 6.86C6.68895 7.46 6.21895 8.21 5.89895 9.11C5.57895 9.99 5.41895 11.02 5.41895 12.2C5.41895 13.24 5.59895 14.18 5.95895 15.02C6.31895 15.84 6.81895 16.54 7.45895 17.12C8.11895 17.7 8.88895 18.14 9.76895 18.44C10.6689 18.74 11.6589 18.89 12.7389 18.89C13.3589 18.89 13.9289 18.85 14.4489 18.77C14.9689 18.67 15.4089 18.52 15.7689 18.32V15.65H11.9589V11.45H20.1789V20.78ZM54.1243 8.78L54.0043 9.89L54.6643 9.05L61.8643 0.919998H67.5043L58.3843 10.82L67.5343 23H62.0143L55.2043 13.58L54.1243 14.66V23H49.7143V0.919998H54.1243V8.78Z" fill="black"/>
<path d="M29.0205 19.4C29.0205 18.3667 29.3872 17.5 30.1205 16.8C30.8872 16.1 31.7205 15.75 32.6205 15.75C33.4538 15.75 34.2372 16.1 34.9705 16.8C35.7372 17.5 36.1205 18.3667 36.1205 19.4C36.1205 20.5 35.7372 21.3833 34.9705 22.05C34.2372 22.6833 33.4538 23 32.6205 23C31.7205 23 30.8872 22.6833 30.1205 22.05C29.3872 21.3833 29.0205 20.5 29.0205 19.4ZM74.7373 19.4C74.7373 18.3667 75.104 17.5 75.8373 16.8C76.604 16.1 77.4373 15.75 78.3373 15.75C79.1706 15.75 79.954 16.1 80.6873 16.8C81.454 17.5 81.8373 18.3667 81.8373 19.4C81.8373 20.5 81.454 21.3833 80.6873 22.05C79.954 22.6833 79.1706 23 78.3373 23C77.4373 23 76.604 22.6833 75.8373 22.05C75.104 21.3833 74.7373 20.5 74.7373 19.4Z" fill="#DF050A"/>
</svg>
