<svg width="18" height="18" viewBox="0 0 18 18" fill="none" xmlns="http://www.w3.org/2000/svg">
<path d="M17.6896 14.8965H0.310358C0.138972 14.8965 0 14.7575 0 14.5861V3.41375C0 3.24237 0.138972 3.10339 0.310358 3.10339H17.6896C17.861 3.10339 18 3.24237 18 3.41375V14.5861C17.9999 14.7575 17.861 14.8965 17.6896 14.8965Z" fill="#41479B"/>
<path d="M17.9999 3.41375C17.9999 3.24237 17.861 3.10339 17.6896 3.10339H16.3011L10.5517 6.87027V3.10339H7.44821V6.87027L1.69881 3.10339H0.310358C0.138972 3.10339 0 3.24237 0 3.41375V4.2164L4.93272 7.4482H0V10.5516H4.93272L0 13.7835V14.5861C0 14.7575 0.138972 14.8965 0.310358 14.8965H1.69885L7.44828 11.1296V14.8965H10.5517V11.1296L16.3012 14.8965H17.6896C17.861 14.8965 18 14.7575 18 14.5861V13.7835L13.0673 10.5517H17.9999V7.44823H13.0672L17.9999 4.2164V3.41375Z" fill="#F5F5F5"/>
<path d="M17.9999 8.06891H9.931V3.10339H8.06892V8.06891H0V9.93096H8.06892V14.8965H9.931V9.93096H17.9999V8.06891Z" fill="#FF4B55"/>
<path d="M6.29112 10.5516L0.00878906 14.6296C0.0307616 14.7795 0.154335 14.8965 0.310323 14.8965H0.737786L7.43116 10.5517H6.29112V10.5516Z" fill="#FF4B55"/>
<path d="M12.1776 10.5516H11.0376L17.7212 14.89C17.877 14.8735 18 14.7463 18 14.5861V14.3309L12.1776 10.5516Z" fill="#FF4B55"/>
<path d="M0 3.75635L5.68752 7.44824H6.82756L0.180808 3.13367C0.0746364 3.18299 0 3.28899 0 3.41376V3.75635Z" fill="#FF4B55"/>
<path d="M11.6918 7.4482L17.9892 3.36035C17.9631 3.21544 17.8421 3.10339 17.6896 3.10339H17.245L10.5518 7.4482H11.6918Z" fill="#FF4B55"/>
</svg>
